<svg xmlns="http://www.w3.org/2000/svg" width="938" height="704" viewBox="0 0 938 704">
  <defs>
    <linearGradient id="a" x1="13.404%" x2="92.596%" y1="28.779%" y2="100%">
      <stop stop-color="#5A73FF" offset="0%"/>
      <stop stop-color="#0E279C" offset="100%"/>
    </linearGradient>
  </defs>
  <path fill="url(#a)" fill-rule="evenodd" d="M247.481645,126.242395 C120.64746,158.687092 49.5202424,274.227291 65.3700271,352 C81.2198119,429.772709 113.05091,459.562858 94.6069837,487.854842 C76.1630572,516.146826 -43.0670914,513.846784 16.5479829,608.923392 C76.1630572,704 235.016276,723.923754 395.807814,667.434052 C556.599352,610.94435 559.482581,644.237119 615.354007,652.652325 C671.225432,661.06753 670.662732,704 768.326359,704 C865.989986,704 947.702629,658.519096 937.066035,574.686339 C926.429441,490.853582 890.614016,437.180923 920.171399,365.341327 C949.728781,293.50173 925.026599,239.376201 896.153053,154.558687 C867.279507,69.7411719 951.352499,-36.5441695 825.793172,12.3661006 C733.125611,48.463741 745.672862,146.669638 495.198009,154.558687 C414.622405,157.096526 374.31583,93.797697 247.481645,126.242395 Z"/>
</svg>
