<svg xmlns="http://www.w3.org/2000/svg" width="98" height="98" viewBox="0 0 98 98">
  <g fill="none" fill-rule="evenodd">
    <rect width="98" height="98" opacity="0"/>
    <path fill="#FFA8BA" d="M6.4744571,0.168382971 C5.25141246,2.92956646 4.63989013,5.77845991 4.63989013,8.7150633 C4.63989013,26.5035034 6.5234375,45.7148074 6.5234375,54.8961598 C6.5234375,72.1651712 0.970703125,88.5312648 6.5234375,91.8362844 C12.0761719,95.141304 52.6113281,99.7372878 55.3632813,95.7867861 C58.1152344,91.8362844 52.375,61.1072511 52.375,54.8961598 C52.375,48.6850685 59.0683594,0.0585779782 52.375,0.0585779782 C45.6816406,0.0585779782 32.669107,4.00025268 22.8077789,4.00025268 C17.5450756,4.00025268 16.1689696,3.19141559 12.9280095,1.13619517 C11.4832864,0.220039399 9.38840831,-0.142068911 6.64337511,0.0498702351 L6.64337479,0.0498655471 C6.56946284,0.0550336432 6.50446387,0.100638758 6.4744571,0.168382971 Z"/>
    <path fill="#FFD47C" d="M20.9626619,45.8865357 L49.9028093,45.8865357 L61.3667411,48.4263225 C60.2814991,32.6940761 63.9466157,25.1983446 72.3620907,25.9391281 C80.7775656,26.6799116 84.9853031,30.1296427 84.9853031,36.2883213 C92.0288834,37.6358663 96.2862111,41.5035996 97.757286,47.8915212 C99.2283609,54.2794427 94.9710333,58.9689271 84.9853031,61.9599741 C84.6927114,65.0571302 82.3943425,67.7556846 78.0901962,70.0556373 C71.6339769,73.5055663 66.1737174,70.9363818 62.5542317,66.6057083 C60.1412412,63.7185926 59.924371,59.6476487 61.903621,54.3928764 L23.4585006,54.3928764 L22.1750961,50.0518098 L20.9626619,45.8865357 Z M84,54 C86.209139,54 88,51.7614237 88,49 C88,46.2385763 86.209139,44 84,44 C81.790861,44 80,46.2385763 80,49 C80,51.7614237 81.790861,54 84,54 Z"/>
    <path fill="#210864" fill-rule="nonzero" d="M83.2707097,36.1295484 C81.8725161,29.8291613 76.244129,25.2258065 69.6774194,25.2258065 C61.9927742,25.2258065 55.7419355,31.4781935 55.7419355,39.1612903 C55.7419355,40.7452903 56.0175484,42.3184516 56.5470968,43.8064516 L52.6451613,43.8064516 L52.6451613,2 L0,2 L0,98 L52.6451613,98 L52.6451613,56.1935484 L56.5470968,56.1935484 C56.0175484,57.6815484 55.7419355,59.2547097 55.7419355,60.8387097 C55.7419355,68.5218065 61.9927742,74.7741935 69.6774194,74.7741935 C76.2394839,74.7741935 81.8647742,70.1770323 83.2676129,63.8843871 C90.3917419,63.2727742 96,57.2789677 96,50 C96,42.752 90.4397419,36.7783226 83.2707097,36.1295484 Z M49.5483871,94.9032258 L3.09677419,94.9032258 L3.09677419,50 L3.09677419,5.09677419 L49.5483871,5.09677419 L49.5483871,43.8064516 L48.6781935,43.8064516 C48.1548387,41.9220645 47.4023226,40.1429677 46.4516129,38.4923871 L46.4516129,16.7654194 L45.6789677,16.3179355 C42.6332903,14.5527742 40.0923871,12.0103226 38.3287742,8.96619355 L37.8812903,8.19354839 L14.763871,8.19354839 L14.3163871,8.96619355 C12.5527742,12.0103226 10.011871,14.5512258 6.96619355,16.3179355 L6.19354839,16.7654194 L6.19354839,38.4629677 C4.23483871,41.8663226 3.09677419,45.7992258 3.09677419,50 C3.09677419,54.2007742 4.23483871,58.1336774 6.19354839,61.5370323 L6.19354839,83.2345806 L6.96619355,83.6820645 C10.011871,85.4472258 12.5527742,87.9896774 14.3163871,91.0338065 L14.763871,91.8064516 L37.8812903,91.8064516 L38.3287742,91.0338065 C40.0923871,87.9896774 42.6332903,85.4487742 45.6789677,83.6820645 L46.4516129,83.2345806 L46.4516129,61.5076129 C47.4023226,59.8570323 48.1548387,58.0779355 48.6781935,56.1935484 L49.5483871,56.1935484 L49.5483871,94.9032258 Z M26.3225806,36.0645161 C22.0536774,36.0645161 18.5806452,39.5375484 18.5806452,43.8064516 C18.5806452,46.2265806 19.748129,48.5150968 21.6774194,49.9674839 L21.6774194,63.9354839 L30.9677419,63.9354839 L30.9677419,56.1935484 L45.4590968,56.1935484 C42.8051613,64.3705806 35.0508387,70.1290323 26.3225806,70.1290323 C15.2237419,70.1290323 6.19354839,61.0988387 6.19354839,50 C6.19354839,38.9011613 15.2237419,29.8709677 26.3225806,29.8709677 C35.0508387,29.8709677 42.8051613,35.6294194 45.4590968,43.8064516 L34.0645161,43.8064516 C34.0645161,39.5375484 30.5914839,36.0645161 26.3225806,36.0645161 Z M30.9677419,43.8064516 L21.6774194,43.8064516 C21.6774194,41.2454194 23.7615484,39.1612903 26.3225806,39.1612903 C28.8836129,39.1612903 30.9677419,41.2454194 30.9677419,43.8064516 Z M24.7741935,60.8387097 L24.7741935,56.1935484 L27.8709677,56.1935484 L27.8709677,60.8387097 L24.7741935,60.8387097 Z M43.3548387,65.7176774 L43.3548387,81.4725161 C40.4376774,83.3166452 37.9602581,85.7956129 36.116129,88.7112258 L16.5290323,88.7112258 C14.6864516,85.7956129 12.2074839,83.3181935 9.29032258,81.4725161 L9.29032258,65.7378065 C13.536,70.3287742 19.5901935,73.2258065 26.3225806,73.2258065 C32.9357419,73.2258065 39.0565161,70.3535484 43.3548387,65.7176774 Z M9.29032258,34.2621935 L9.29032258,18.5290323 C12.2074839,16.6833548 14.6849032,14.2059355 16.5290323,11.2903226 L36.116129,11.2903226 C37.9587097,14.2059355 40.4376774,16.6833548 43.3548387,18.5290323 L43.3548387,34.2823226 C39.0565161,29.6464516 32.9357419,26.7741935 26.3225806,26.7741935 C19.5901935,26.7741935 13.536,29.6712258 9.29032258,34.2621935 Z M82.1264516,60.8402581 L80.592,60.8340645 L80.4232258,62.1904516 C79.748129,67.5989677 75.1292903,71.6774194 69.6774194,71.6774194 C63.7021935,71.6774194 58.8387097,66.8154839 58.8387097,60.8387097 C58.8387097,58.9450323 59.3450323,57.0730323 60.3034839,55.4224516 L61.6536774,53.0967742 L24.7741935,53.0967742 L24.7741935,48.2503226 L24.0046452,47.8028387 C23.5819355,47.5566452 23.2273548,47.2454194 22.9099355,46.9032258 L61.6536774,46.9032258 L60.3034839,44.5775484 C59.3450323,42.9269677 58.8387097,41.0549677 58.8387097,39.1612903 C58.8387097,33.1845161 63.7021935,28.3225806 69.6774194,28.3225806 C75.1292903,28.3225806 79.748129,32.4010323 80.4216774,37.8095484 L80.6972903,39.1612903 L82.0645161,39.1612903 C88.0397419,39.1612903 92.9032258,44.0232258 92.9032258,50 C92.9032258,55.9767742 88.0397419,60.8387097 82.1264516,60.8402581 Z"/>
    <path fill="#210864" fill-rule="nonzero" d="M82.1935484,44 C78.7778065,44 76,46.7778065 76,50.1935484 C76,53.6092903 78.7778065,56.3870968 82.1935484,56.3870968 C85.6092903,56.3870968 88.3870968,53.6092903 88.3870968,50.1935484 C88.3870968,46.7778065 85.6092903,44 82.1935484,44 Z M82.1935484,53.2903226 C80.4856774,53.2903226 79.0967742,51.9014194 79.0967742,50.1935484 C79.0967742,48.4856774 80.4856774,47.0967742 82.1935484,47.0967742 C83.9014194,47.0967742 85.2903226,48.4856774 85.2903226,50.1935484 C85.2903226,51.9014194 83.9014194,53.2903226 82.1935484,53.2903226 Z"/>
  </g>
</svg>
