<svg xmlns="http://www.w3.org/2000/svg" width="36" height="36" viewBox="0 0 36 36">
  <path fill="#5163BC" fill-rule="evenodd" d="M18,36 C8.0588745,36 0,27.9411255 0,18 C0,8.0588745 8.0588745,0 18,0 C27.9411255,0 36,8.0588745 36,18 C36,27.9411255 27.9411255,36 18,36 Z M9.2195122,8.7804878 C8.24964629,8.7804878 7.46341463,9.56671946 7.46341463,10.5365854 C7.46341463,11.5064513 8.24964629,12.2926829 9.2195122,12.2926829 L27.6585366,12.2926829 C28.6284025,12.2926829 29.4146341,11.5064513 29.4146341,10.5365854 C29.4146341,9.56671946 28.6284025,8.7804878 27.6585366,8.7804878 L9.2195122,8.7804878 Z M9.2195122,16.2439024 C8.24964629,16.2439024 7.46341463,17.0301341 7.46341463,18 C7.46341463,18.9698659 8.24964629,19.7560976 9.2195122,19.7560976 L27.6585366,19.7560976 C28.6284025,19.7560976 29.4146341,18.9698659 29.4146341,18 C29.4146341,17.0301341 28.6284025,16.2439024 27.6585366,16.2439024 L9.2195122,16.2439024 Z M9.2195122,23.7073171 C8.24964629,23.7073171 7.46341463,24.4935487 7.46341463,25.4634146 C7.46341463,26.4332805 8.24964629,27.2195122 9.2195122,27.2195122 L27.6585366,27.2195122 C28.6284025,27.2195122 29.4146341,26.4332805 29.4146341,25.4634146 C29.4146341,24.4935487 28.6284025,23.7073171 27.6585366,23.7073171 L9.2195122,23.7073171 Z"/>
</svg>
