<svg xmlns="http://www.w3.org/2000/svg" width="54" height="54" viewBox="0 0 54 54">
  <g fill="none" fill-rule="evenodd">
    <circle cx="27" cy="27" r="27" fill="#2943C1"/>
    <path fill="#FFFFFF" d="M13.1707317,13.1707317 L40.8292683,13.1707317 C42.2840671,13.1707317 43.4634146,14.3500792 43.4634146,15.804878 C43.4634146,17.2596769 42.2840671,18.4390244 40.8292683,18.4390244 L13.1707317,18.4390244 C11.7159329,18.4390244 10.5365854,17.2596769 10.5365854,15.804878 C10.5365854,14.3500792 11.7159329,13.1707317 13.1707317,13.1707317 Z M13.1707317,24.3658537 L40.8292683,24.3658537 C42.2840671,24.3658537 43.4634146,25.5452011 43.4634146,27 C43.4634146,28.4547989 42.2840671,29.6341463 40.8292683,29.6341463 L13.1707317,29.6341463 C11.7159329,29.6341463 10.5365854,28.4547989 10.5365854,27 C10.5365854,25.5452011 11.7159329,24.3658537 13.1707317,24.3658537 Z M13.1707317,35.5609756 L40.8292683,35.5609756 C42.2840671,35.5609756 43.4634146,36.7403231 43.4634146,38.195122 C43.4634146,39.6499208 42.2840671,40.8292683 40.8292683,40.8292683 L13.1707317,40.8292683 C11.7159329,40.8292683 10.5365854,39.6499208 10.5365854,38.195122 C10.5365854,36.7403231 11.7159329,35.5609756 13.1707317,35.5609756 Z"/>
  </g>
</svg>
