<svg xmlns="http://www.w3.org/2000/svg" width="98" height="98" viewBox="0 0 98 98">
  <g fill="none" fill-rule="evenodd">
    <rect width="98" height="98" opacity="0"/>
    <g transform="translate(1)">
      <path fill="#7A8EF8" d="M8.2617782,72.6882099 L8.2617782,97.9835202 L30.9450259,97.9835202 L30.1575729,71.4047046 C20.5988615,72.7735213 14.7765979,73.4579296 12.690782,73.4579296 C10.6049661,73.4579296 9.12863152,73.2013564 8.2617782,72.6882099 Z"/>
      <path fill="#A6B4FF" d="M36.0435805,47.3957752 C35.1919043,48.6088267 32.5247247,60.977063 34.2841526,63.3538004 C36.0435805,65.7305377 35.1538175,86.7530888 34.2841526,90.2542112 C33.4144877,93.7553337 34.2937381,98.2303482 36.0435805,98.2303482 C37.7934228,98.2303482 63.2047183,96.0400498 63.9054221,96.0400498 C64.6061258,96.0400498 65.7324281,70.7993771 65.7324281,67.9074164 C65.7324281,65.0154556 69.5968429,60.636776 67.972092,57.1207959 C66.3473412,53.6048158 66.95842,43.0314739 64.6324861,41.5044956 C62.3065522,39.9775173 40.2497202,39.5926575 38.7467058,41.5044956 C37.2436914,43.4163337 36.8952567,46.1827237 36.0435805,47.3957752 Z"/>
      <path fill="#8CBFFC" d="M70.2865233,69.3323085 C69.2115038,71.2110765 68.9939118,84.1352748 69.1027078,87.8420074 C69.1752384,90.3131624 69.3683516,93.58535 69.6820471,97.6585701 C82.6069559,98.666331 89.9731681,98.9182712 91.7806834,98.4143908 C94.4919565,97.6585701 95.2794095,92.2388996 93.5300465,90.0404535 C92.3638045,88.5748227 90.9387526,80.6702579 89.2548908,66.326759 C77.3259922,67.0779467 71.003203,68.0797965 70.2865233,69.3323085 Z"/>
      <path fill="#FFD47C" d="M35.5484868,36.2113544 L27.9476241,19.4927157 C33.4727357,20.9008332 36.9813669,20.9008332 38.4735176,19.4927157 C39.9656684,18.0845983 43.1129243,13.3816075 47.9152853,5.38374332 C46.700796,2.06011329 47.5154081,0.398298282 50.3591215,0.398298282 C53.2028349,0.398298282 54.069848,3.25079848 52.9601607,8.95579887 C54.0771969,17.1198126 55.6629666,21.2018195 57.7174697,21.2018195 C59.7719727,21.2018195 63.4865335,20.2361551 68.8611519,18.3048263 C70.8872178,12.2692842 72.8902785,10.1468036 74.8703338,11.9373845 C77.8404167,14.6232559 78.6949686,18.6467909 76.4495533,19.4927157 C74.204138,20.3386406 71.2196767,22.4158295 70.4485191,26.286475 C69.6773616,30.1571204 70.4096976,38.8459431 68.8611519,39.8687213 C67.3126061,40.8914996 61.0010001,38.0028939 55.6800608,37.1071241 C52.1327679,36.5099443 45.4222432,36.2113544 35.5484868,36.2113544 Z M27,18 C24.790861,18 23,16.4329966 23,14.5 C23,12.5670034 24.790861,11 27,11 C29.209139,11 31,12.5670034 31,14.5 C31,16.4329966 29.209139,18 27,18 Z"/>
      <path fill="#210864" fill-rule="nonzero" d="M92.9032258,93.9032258 L92.9032258,67.5806452 L66.5806452,67.5806452 L66.5806452,41.2580645 L29.4193548,41.2580645 L29.4193548,67.5806452 L3.09677419,67.5806452 L3.09677419,93.9032258 L0,93.9032258 L0,97 L96,97 L96,93.9032258 L92.9032258,93.9032258 Z M29.4193548,93.9032258 L6.19354839,93.9032258 L6.19354839,70.6774194 L29.4193548,70.6774194 L29.4193548,93.9032258 Z M63.483871,86.1612903 L60.3870968,86.1612903 L60.3870968,89.2580645 L63.483871,89.2580645 L63.483871,93.9032258 L32.516129,93.9032258 L32.516129,89.2580645 L57.2903226,89.2580645 L57.2903226,86.1612903 L32.516129,86.1612903 L32.516129,44.3548387 L63.483871,44.3548387 L63.483871,86.1612903 Z M89.8064516,93.9032258 L66.5806452,93.9032258 L66.5806452,70.6774194 L89.8064516,70.6774194 L89.8064516,93.9032258 Z"/>
      <polygon fill="#210864" fill-rule="nonzero" points="46.452 64.484 49.548 64.484 49.548 47.452 43.355 47.452 43.355 50.548 46.452 50.548"/>
      <path fill="#210864" fill-rule="nonzero" d="M23.2258065 86.1612903L16.9455484 86.1612903 20.5950968 83.971871C22.2178065 82.9963871 23.2258065 81.2172903 23.2258065 79.1935484 23.2258065 76.2051613 20.7948387 73.7741935 17.8064516 73.7741935 14.8180645 73.7741935 12.3870968 76.2051613 12.3870968 79.1935484L12.3870968 81.516129 15.483871 81.516129 15.483871 79.1935484C15.483871 77.9130323 16.5259355 76.8709677 17.8064516 76.8709677 19.0869677 76.8709677 20.1290323 77.9130323 20.1290323 79.3251613 20.1290323 80.1349677 19.6970323 80.899871 19.0002581 81.3163871L12.3870968 85.2849032 12.3870968 89.2580645 23.2258065 89.2580645 23.2258065 86.1612903zM83.6129032 84.6129032C83.6129032 83.4237419 83.163871 82.3383226 82.4268387 81.516129 83.163871 80.6939355 83.6129032 79.6085161 83.6129032 78.4193548 83.6129032 75.8583226 81.5287742 73.7741935 78.9677419 73.7741935L72.7741935 73.7741935 72.7741935 76.8709677 78.9677419 76.8709677C79.8209032 76.8709677 80.516129 77.5646452 80.516129 78.4193548 80.516129 79.2740645 79.8209032 79.9677419 78.9677419 79.9677419L75.8709677 79.9677419 75.8709677 83.0645161 78.9677419 83.0645161C79.8209032 83.0645161 80.516129 83.7581935 80.516129 84.6129032 80.516129 85.4676129 79.8209032 86.1612903 78.9677419 86.1612903L72.7741935 86.1612903 72.7741935 89.2580645 78.9677419 89.2580645C81.5287742 89.2580645 83.6129032 87.1739355 83.6129032 84.6129032zM23.6314839 20.9695484L29.883871 38.1612903 66.116129 38.1612903 72.3685161 20.9695484C74.3752258 20.4570323 75.8709677 18.6485161 75.8709677 16.483871 75.8709677 13.9228387 73.7868387 11.8387097 71.2258065 11.8387097 68.6647742 11.8387097 66.5806452 13.9228387 66.5806452 16.483871 66.5806452 16.9251613 66.6627097 17.3447742 66.7788387 17.7504516L60.8005161 20.7388387C60.2910968 20.9943226 59.7197419 21.1290323 59.1499355 21.1290323 57.6913548 21.1290323 56.3659355 20.2665806 55.7729032 18.9349677L51.3104516 8.89522581C52.1341935 8.056 52.6451613 6.91019355 52.6451613 5.64516129 52.6451613 3.08412903 50.5610323 1 48 1 45.4389677 1 43.3548387 3.08412903 43.3548387 5.64516129 43.3548387 6.91019355 43.8658065 8.056 44.6895484 8.89522581L40.2270968 18.9349677C39.6340645 20.2665806 38.3086452 21.1290323 36.8500645 21.1290323 36.2787097 21.1290323 35.7073548 20.9943226 35.1979355 20.7388387L29.2211613 17.7504516C29.3372903 17.3447742 29.4193548 16.9251613 29.4193548 16.483871 29.4193548 13.9228387 27.3352258 11.8387097 24.7741935 11.8387097 22.2131613 11.8387097 20.1290323 13.9228387 20.1290323 16.483871 20.1290323 18.6485161 21.6247742 20.4570323 23.6314839 20.9695484zM71.2258065 14.9354839C72.0789677 14.9354839 72.7741935 15.6291613 72.7741935 16.483871 72.7741935 17.3385806 72.0789677 18.0322581 71.2258065 18.0322581 70.3726452 18.0322581 69.6774194 17.3385806 69.6774194 16.483871 69.6774194 15.6291613 70.3726452 14.9354839 71.2258065 14.9354839zM48 4.09677419C48.8531613 4.09677419 49.5483871 4.79045161 49.5483871 5.64516129 49.5483871 6.49987097 48.8531613 7.19354839 48 7.19354839 47.1468387 7.19354839 46.4516129 6.49987097 46.4516129 5.64516129 46.4516129 4.79045161 47.1468387 4.09677419 48 4.09677419zM27.4049032 20.3052903L33.812129 23.5089032C34.7504516 23.9780645 35.8002581 24.2258065 36.8500645 24.2258065 39.5303226 24.2258065 41.9674839 22.6433548 43.056 20.1938065L47.4812903 10.2392258C47.6531613 10.2578065 47.8219355 10.2903226 48 10.2903226 48.1780645 10.2903226 48.3468387 10.2578065 48.5187097 10.2376774L52.944 20.1922581C54.0325161 22.6433548 56.468129 24.2258065 59.1499355 24.2258065 60.1997419 24.2258065 61.2495484 23.9780645 62.1863226 23.5089032L68.5935484 20.3052903C68.7809032 20.4353548 68.9852903 20.5390968 69.1912258 20.6397419L66.1997419 28.8709677 55.7419355 28.8709677 55.7419355 31.9677419 65.0740645 31.9677419 63.9483871 35.0645161 32.0516129 35.0645161 30.9259355 31.9677419 40.2580645 31.9677419 40.2580645 28.8709677 29.8002581 28.8709677 26.8072258 20.6397419C27.0131613 20.5390968 27.2175484 20.4338065 27.4049032 20.3052903zM24.7741935 14.9354839C25.6273548 14.9354839 26.3225806 15.6291613 26.3225806 16.483871 26.3225806 17.3385806 25.6273548 18.0322581 24.7741935 18.0322581 23.9210323 18.0322581 23.2258065 17.3385806 23.2258065 16.483871 23.2258065 15.6291613 23.9210323 14.9354839 24.7741935 14.9354839z"/>
      <path fill="#210864" fill-rule="nonzero" d="M48,33.516129 C50.6043871,33.516129 52.6451613,30.7956129 52.6451613,27.3225806 C52.6451613,23.8495484 50.6043871,21.1290323 48,21.1290323 C45.3956129,21.1290323 43.3548387,23.8495484 43.3548387,27.3225806 C43.3548387,30.7956129 45.3956129,33.516129 48,33.516129 Z M48,24.2258065 C48.6317419,24.2258065 49.5483871,25.432 49.5483871,27.3225806 C49.5483871,29.2131613 48.6317419,30.4193548 48,30.4193548 C47.3682581,30.4193548 46.4516129,29.2131613 46.4516129,27.3225806 C46.4516129,25.432 47.3682581,24.2258065 48,24.2258065 Z"/>
    </g>
  </g>
</svg>
