<svg xmlns="http://www.w3.org/2000/svg" width="140" height="21" viewBox="0 0 140 21">
  <path fill="#2943C1" d="M0.0235175542,0.00209672681 L5.66773056,0.00209672681 L5.66773056,15.810042 L13.5461112,15.810042 L13.5461112,21 L0,21 L0.0235175542,0.00209672681 Z M33.7241727,0.00209672681 L43.3663699,0.00209672681 C44.942046,0.00209672681 46.2590291,0.502046805 47.317319,1.52575411 C48.3767753,2.50637428 48.9608003,3.9061665 48.9165127,5.3587047 C48.9417602,6.2755091 48.6960975,7.17907472 48.2109861,7.95368368 C47.7443173,8.68734041 47.0614077,9.25372213 46.2590291,9.57256965 C47.5995296,9.85825541 48.634302,10.4534341 49.3633462,11.3819128 C50.0954947,12.3593743 50.4770358,13.5600747 50.4451537,14.7863347 C50.484632,16.4616589 49.8276505,18.0768326 48.634302,19.2382712 C47.4349068,20.4048213 45.9297833,21 44.1189316,21 L33.7006551,21 L33.7006551,0.00209672681 L33.7241727,0.00209672681 Z M42.1199395,8.38221232 C42.5983569,8.40291098 43.0619671,8.21170692 43.3898875,7.85845509 C43.727746,7.4820012 43.905221,6.98579638 43.8837561,6.47764059 C43.8992018,5.98723756 43.7116497,5.51258359 43.3663699,5.16824753 C43.0439237,4.82136533 42.5902635,4.63073467 42.1199395,4.64449031 L39.3919032,4.64449031 L39.3919032,8.38221232 L42.1199395,8.38221232 Z M42.8725013,16.286185 C43.441124,16.3084564 43.9938144,16.0932656 44.4011423,15.6910063 C44.7924096,15.3137301 45.0062621,14.7855047 44.9890811,14.2387704 C45.0059006,13.7059677 44.7909828,13.192516 44.4011423,12.8341487 C43.9753179,12.4515839 43.4174522,12.2547823 42.8489837,12.2865844 L39.3683857,12.2865844 L39.3683857,16.286185 L42.8725013,16.286185 Z M52.9144969,0.00209672681 L62.5566941,0.00209672681 C64.1323702,0.00209672681 65.4493533,0.502046805 66.5076432,1.52575411 C67.5670995,2.50637428 68.1511245,3.9061665 68.1068369,5.3587047 C68.1320844,6.2755091 67.8864217,7.17907472 67.4013103,7.95368368 C66.9346415,8.68734041 66.2517319,9.25372213 65.4493533,9.57256965 C66.7898539,9.85825541 67.8246262,10.4534341 68.5536704,11.3819128 C69.2858189,12.3593743 69.66736,13.5600747 69.6354779,14.7863347 C69.6749563,16.4616589 69.0179747,18.0768326 67.8246262,19.2382712 C66.625231,20.4048213 65.1201075,21 63.3092558,21 L52.8909793,21 L52.8909793,0.00209672681 L52.9144969,0.00209672681 Z M61.3102637,8.38221232 C61.7886811,8.40291098 62.2522913,8.21170692 62.5802117,7.85845509 C62.9180702,7.4820012 63.0955452,6.98579638 63.0740803,6.47764059 C63.089526,5.98723756 62.9019739,5.51258359 62.5566941,5.16824753 C62.2342479,4.82136533 61.7805877,4.63073467 61.3102637,4.64449031 L58.5822274,4.64449031 L58.5822274,8.38221232 L61.3102637,8.38221232 Z M62.086343,16.286185 C62.6549658,16.3084564 63.2076561,16.0932656 63.614984,15.6910063 C64.0062514,15.3137301 64.2201039,14.7855047 64.2029229,14.2387704 C64.2197424,13.7059677 64.0048246,13.192516 63.614984,12.8341487 C63.1891596,12.4515839 62.631294,12.2547823 62.0628255,12.2865844 L58.5822274,12.2865844 L58.5822274,16.286185 L62.086343,16.286185 Z M81.3237023,0.00209672681 L91.0599698,0.00209672681 C91.8890717,0.0125443374 92.7095625,0.173824771 93.4822778,0.478239658 C94.3259547,0.799686676 95.112317,1.25801589 95.8105157,1.83524701 C96.5786792,2.47585137 97.1971129,3.28077161 97.6213674,4.19215452 C98.1026231,5.2179144 98.3440383,6.34209885 98.326894,7.47754075 C98.3754354,9.50083627 97.5409101,11.4430088 96.0456912,12.7865344 C94.5170502,14.1911561 92.8473039,14.9053705 91.0364522,14.9053705 L86.9679153,14.9053705 L86.9679153,21 L81.3237023,21 L81.3237023,0.00209672681 Z M90.8247942,9.71541253 C90.9687868,9.7149405 91.1117498,9.69081993 91.2481102,9.64399109 C91.3892155,9.59637679 91.6008735,9.52495535 91.8830842,9.40591962 C92.1737512,9.25828418 92.4060215,9.01475621 92.5415757,8.71551237 C92.722491,8.32064785 92.8110158,7.88886694 92.8002688,7.4537336 C92.8105691,7.00328976 92.7222239,6.5561244 92.5415757,6.14434054 C92.4135708,5.83417521 92.1799314,5.58076479 91.8830842,5.43012614 C91.6792927,5.33672621 91.4665017,5.26492246 91.2481102,5.21586183 C91.1085376,5.18823832 90.9669525,5.17231293 90.8247942,5.16824753 L87.0149504,5.16824753 L87.0149504,9.71541253 L90.8247942,9.71541253 Z M104.958844,0.00209672681 L110.132706,0.00209672681 L118.575508,21 L112.602049,21 L111.520242,18.2621781 L103.547791,18.2621781 L102.442466,21 L96.4925248,21 L104.958844,0.00209672681 Z M110.038636,13.8340489 L107.545775,7.33469787 L105.052914,13.8340489 L110.038636,13.8340489 Z M120.456912,0.00209672681 L128.876197,0.00209672681 C132.474383,0.00209672681 135.225937,0.978189736 137.130858,2.93037575 C139.03578,4.88256177 140,7.42992646 140,10.5486627 C140,13.7388203 139.059298,16.286185 137.154376,18.1669496 C135.249454,20.0477141 132.4979,21 128.899714,21 L120.456912,21 L120.456912,0.00209672681 Z M128.546951,15.810042 C129.557221,15.8324731 130.564805,15.6959389 131.53368,15.4053206 C132.235723,15.2029764 132.85956,14.787504 133.321015,14.2149632 C133.689076,13.724332 133.960534,13.166648 134.120611,12.5722701 C134.270854,11.9087305 134.341914,11.22934 134.332269,10.5486627 C134.34204,9.87584237 134.270966,9.20431516 134.120611,8.54886234 C133.974559,7.96359558 133.701395,7.4186737 133.321015,6.95378352 C132.848806,6.40370343 132.227254,6.00631009 131.53368,5.81104049 C130.55559,5.52809411 129.54023,5.39961122 128.523434,5.43012614 L126.101125,5.43012614 L126.101125,15.8338492 L128.546951,15.8338492 L128.546951,15.810042 Z M28.8090039,2.35900424 C27.1853319,0.804229755 25.0230711,-0.0422537572 22.78851,0.00209672681 C20.5529609,-0.0479411144 18.388639,0.79934928 16.7680161,2.35900424 C15.1217873,3.93027591 14.2751554,5.83484764 14.2751554,8.04891227 C14.2751554,10.2629769 15.0982698,12.1437415 16.7680161,13.7388203 C16.8325668,13.8088287 16.9034262,13.8725905 16.9796741,13.9292775 L16.2741475,17.4765423 C16.2419528,17.626649 16.2991398,17.7819809 16.4205282,17.8741433 C16.5419167,17.9663057 16.7052338,17.9783883 16.8385688,17.9050709 L20.7895179,15.8814635 C21.4382853,16.0258173 22.1007413,16.0976688 22.7649924,16.0957278 C24.9995536,16.1400783 27.1618144,15.2935948 28.7854863,13.7388203 C30.3924805,12.2980814 31.3021272,10.2218298 31.2783471,8.04891227 C31.3018646,5.83484764 30.4787502,3.93027591 28.8090039,2.35900424 Z M24.9756425,10.120134 C24.3939775,10.6857547 23.6185788,11.0014399 22.8120275,11.0009984 C21.9956345,11.0170537 21.2072661,10.6995395 20.624895,10.120134 C20.0393145,9.59525865 19.7051677,8.84067554 19.7077104,8.04891227 C19.7001908,7.25608833 20.0352209,6.49951043 20.624895,5.97769052 C21.2132345,5.40762083 21.9976326,5.09170563 22.8120275,5.09682609 C23.6206548,5.08530996 24.400054,5.40262382 24.9756425,5.97769052 C25.5612231,6.50256588 25.8953698,7.257149 25.8928271,8.04891227 C25.8908517,8.83969814 25.5574961,9.59249446 24.9756425,10.120134 Z M72.3870317,0.00209672681 L77.8195868,0.00209672681 L77.8195868,21 L72.3870317,21 L72.3870317,0.00209672681 Z"/>
</svg>
