<svg xmlns="http://www.w3.org/2000/svg" width="1254" height="578" viewBox="0 0 1254 578">
  <defs>
    <linearGradient id="a" x1="47.596%" x2="148.936%" y1="84.495%" y2="0%">
      <stop stop-color="#1A1D3C" offset="0%"/>
      <stop stop-color="#484E88" offset="100%"/>
    </linearGradient>
  </defs>
  <path fill="url(#a)" fill-rule="evenodd" d="M571.315024,0.660588399 C597.110296,0.660588399 700.06065,142.181504 890.196257,205.007889 C1014.32331,246.023113 1133.95512,265.174383 1249.09166,262.461698 C1250.48686,262.428827 1252.01047,261.999597 1253.39063,264.295159 C1254.77079,266.590721 1253.44396,267.329957 1252.94893,268.168771 C1170.24463,408.308329 1063.84727,496.262461 933.756851,532.031168 C735.892808,586.434412 521.627052,590.944964 401.652662,522.972015 C321.669735,477.656716 215.785514,495.779181 84,577.339412 C-19.2248525,357.314882 -26.6665303,213.035078 61.6749664,144.5 C107.56728,108.896876 307.468009,152.242845 386.445031,128.824773 C473.698995,102.952441 545.519752,0.660588399 571.315024,0.660588399 Z"/>
</svg>
