<svg xmlns="http://www.w3.org/2000/svg" width="29" height="22" viewBox="0 0 29 22">
  <path fill="#FFD47C" fill-rule="evenodd" d="M0.160825196,10.6783793 C1.30988109,1.48843762 12.4550486,-0.503004931 12.9881455,0.0983463436 C13.5212424,0.699697618 8.41359766,1.58956012 5.46830925,6.27142755 C4.41928653,7.93896725 4.1755988,10.2196752 4.73724608,13.1135514 L4.7741241,13.2615717 C5.49108492,12.8288914 6.33272093,12.5797304 7.23294584,12.5797304 C9.85190451,12.5797304 11.97499,14.6885296 11.97499,17.2898652 C11.97499,19.8912008 9.85190451,22 7.23294584,22 C7.1376696,22 -1.25476323,22 0.160825196,10.6783793 Z M16.1340265,10.6783793 C17.2830824,1.48843762 28.4282499,-0.503004931 28.9613469,0.0983463436 C29.4944438,0.699697618 24.386799,1.58956012 21.4415106,6.27142755 C20.3924879,7.93896725 20.1488002,10.2196752 20.7104474,13.1135514 L20.7473255,13.2615717 C21.4642863,12.8288914 22.3059223,12.5797304 23.2061472,12.5797304 C25.8251059,12.5797304 27.9481913,14.6885296 27.9481913,17.2898652 C27.9481913,19.8912008 25.8251059,22 23.2061472,22 C23.1108709,22 14.7184381,22 16.1340265,10.6783793 Z"/>
</svg>
