<svg xmlns="http://www.w3.org/2000/svg" width="98" height="98" viewBox="0 0 98 98">
  <g fill="none" fill-rule="evenodd">
    <rect width="98" height="98" opacity="0"/>
    <g transform="translate(1)">
      <path fill="#FFD47C" d="M57.5379794,49.5255327 C69.2037103,49.5255327 76.8988154,54.3637139 80.6232946,64.0400763 L94.2385007,64.0400763 L94.2385007,76.1098719 L84.882609,76.1098719 L84.882609,85.1116898 L91.1402306,85.1116898 C91.1402306,93.6925588 91.1402306,97.9829933 91.1402306,97.9829933 C91.1402306,97.9829933 82.1266599,97.9829933 64.0995185,97.9829933 L59.6942045,94.664234 C48.5177874,89.7571913 41.8572599,84.1761006 39.712622,77.920962 C36.4956651,68.538254 40.0393829,49.5255327 57.5379794,49.5255327 Z"/>
      <path fill="#A6B4FF" d="M13.6358875,28.11839 L53.7158665,28.11839 C53.7440842,33.6250618 52.9924368,37.931426 51.4609246,41.0374824 C49.9294123,44.1435388 43.3173145,46.5258128 31.6246312,48.1843044 C26.6851338,44.7188259 22.3389122,40.9951559 18.5859665,37.0132946 C14.8330208,33.0314333 13.1829944,30.0664651 13.6358875,28.11839 Z M8.83818375,89.3742947 L10.7830844,77.6191798 C15.3356474,72.422902 20.833854,69.1902189 27.2777042,67.9211307 C33.7215543,66.6520425 36.6706501,67.9140763 36.1249916,71.7072321 C36.2029428,76.444268 36.7764662,79.9822306 37.845562,82.32112 C38.9146577,84.6600094 40.5235921,87.0110676 42.6723652,89.3742947 L8.83818375,89.3742947 Z"/>
      <g fill="#210864" fill-rule="nonzero">
        <rect width="3" height="3" x="28" y="53"/>
        <rect width="3" height="6" x="28" y="59"/>
        <path d="M59.0833333,59.0909091 L59.0833333,56 L55.9166667,56 L55.9166667,59.0909091 C51.5514167,59.0909091 48,62.5573636 48,66.8181818 C48,71.079 51.5514167,74.5454545 55.9166667,74.5454545 L59.0833333,74.5454545 C61.7021667,74.5454545 63.8333333,76.6256364 63.8333333,79.1818182 C63.8333333,81.738 61.7021667,83.8181818 59.0833333,83.8181818 L55.9166667,83.8181818 C53.2978333,83.8181818 51.1666667,81.738 51.1666667,79.1818182 L51.1666667,77.6363636 L48,77.6363636 L48,79.1818182 C48,83.4426364 51.5514167,86.9090909 55.9166667,86.9090909 L55.9166667,90 L59.0833333,90 L59.0833333,86.9090909 C63.4485833,86.9090909 67,83.4426364 67,79.1818182 C67,74.921 63.4485833,71.4545455 59.0833333,71.4545455 L55.9166667,71.4545455 C53.2978333,71.4545455 51.1666667,69.3743636 51.1666667,66.8181818 C51.1666667,64.262 53.2978333,62.1818182 55.9166667,62.1818182 L59.0833333,62.1818182 C61.7021667,62.1818182 63.8333333,64.262 63.8333333,66.8181818 L63.8333333,68.3636364 L67,68.3636364 L67,66.8181818 C67,62.5573636 63.4485833,59.0909091 59.0833333,59.0909091 Z"/>
        <path d="M89.8064516,83.6129032 L89.8064516,77.4193548 L92.9032258,77.4193548 L92.9032258,65.0322581 L79.1612903,65.0322581 C75.9623226,56.0268387 67.3796129,49.5483871 57.2903226,49.5483871 C52.1187097,49.5483871 47.3527742,51.2686452 43.4895484,54.1378065 L32.5780645,48 L44.6926452,41.1855484 C51.5086452,37.3517419 55.7419355,30.1114839 55.7419355,22.292129 L55.7419355,9.29032258 L58.8387097,9.29032258 L58.8387097,0 L0,0 L0,9.29032258 L3.09677419,9.29032258 L3.09677419,22.292129 C3.09677419,30.1114839 7.33006452,37.3517419 14.1460645,41.1855484 L26.2606452,48 L14.1460645,54.8144516 C7.33006452,58.6482581 3.09677419,65.8885161 3.09677419,73.707871 L3.09677419,86.7096774 L0,86.7096774 L0,96 L57.2903226,96 L96,96 L96,83.6129032 L89.8064516,83.6129032 Z M83.6129032,68.1290323 L83.6129032,71.2258065 L86.7096774,71.2258065 L86.7096774,68.1290323 L89.8064516,68.1290323 L89.8064516,74.3225806 L80.4371613,74.3225806 C80.4712258,73.8085161 80.516129,73.2975484 80.516129,72.7741935 C80.516129,71.184 80.3535484,69.6309677 80.0485161,68.1290323 L83.6129032,68.1290323 Z M80.0469677,77.4193548 L80.516129,77.4193548 L80.516129,80.516129 L83.6129032,80.516129 L83.6129032,77.4193548 L86.7096774,77.4193548 L86.7096774,83.6129032 L77.8157419,83.6129032 C78.8345806,81.6898065 79.6010323,79.6134194 80.0469677,77.4193548 Z M3.09677419,3.09677419 L55.7419355,3.09677419 L55.7419355,6.19354839 L3.09677419,6.19354839 L3.09677419,3.09677419 Z M15.6650323,38.4867097 C11.9891613,36.4196129 9.19432258,33.1943226 7.62425806,29.4193548 L46.4516129,29.4193548 L46.4516129,26.3225806 L6.67509677,26.3225806 C6.38245161,25.0110968 6.19354839,23.6670968 6.19354839,22.292129 L6.19354839,9.29032258 L52.6451613,9.29032258 L52.6451613,22.292129 C52.6451613,23.6670968 52.4562581,25.0110968 52.1636129,26.3225806 L49.5483871,26.3225806 L49.5483871,29.4193548 L51.2144516,29.4193548 C49.6428387,33.1943226 46.848,36.4196129 43.1736774,38.4867097 L29.4193548,46.224 L15.6650323,38.4867097 Z M6.19354839,73.707871 C6.19354839,67.0049032 9.82296774,60.8005161 15.6650323,57.5132903 L29.4193548,49.776 L40.9687742,56.2730323 C37.632,59.5741935 35.3047742,63.8787097 34.4469677,68.688 C28.5058065,67.4415484 22.2843871,68.4340645 17.0957419,71.4611613 L6.19354839,77.8203871 L6.19354839,73.707871 Z M6.19354839,81.4049032 L18.6565161,74.1352258 C23.2753548,71.4410323 28.8263226,70.5925161 34.1156129,71.7847742 C34.100129,72.116129 34.0645161,72.4412903 34.0645161,72.7741935 C34.0645161,78.0061935 35.8234839,82.8232258 38.7545806,86.7096774 L6.19354839,86.7096774 L6.19354839,81.4049032 Z M3.09677419,92.9032258 L3.09677419,89.8064516 L41.5540645,89.8064516 C42.8314839,90.987871 44.235871,92.0299355 45.7532903,92.9032258 L3.09677419,92.9032258 Z M37.1612903,72.7741935 C37.1612903,61.6753548 46.1914839,52.6451613 57.2903226,52.6451613 C68.3891613,52.6451613 77.4193548,61.6753548 77.4193548,72.7741935 C77.4193548,83.8730323 68.3891613,92.9032258 57.2903226,92.9032258 C46.1914839,92.9032258 37.1612903,83.8730323 37.1612903,72.7741935 Z M92.9032258,92.9032258 L68.8273548,92.9032258 C70.8789677,91.7233548 72.7261935,90.2384516 74.3225806,88.5104516 L74.3225806,89.8064516 L77.4193548,89.8064516 L77.4193548,86.7096774 L80.516129,86.7096774 L80.516129,89.8064516 L83.6129032,89.8064516 L83.6129032,86.7096774 L86.7096774,86.7096774 L86.7096774,89.8064516 L89.8064516,89.8064516 L89.8064516,86.7096774 L92.9032258,86.7096774 L92.9032258,92.9032258 Z"/>
      </g>
    </g>
  </g>
</svg>
