<svg xmlns="http://www.w3.org/2000/svg" width="54" height="54" viewBox="0 0 54 54">
  <g fill="none" fill-rule="evenodd">
    <circle cx="27" cy="27" r="26" stroke="#5B71E2" stroke-width="2"/>
    <path fill="#5B71E2" d="M27,24.1715729 L36.8994949,14.2720779 C37.6805435,13.4910294 38.9468735,13.4910294 39.7279221,14.2720779 C40.5089706,15.0531265 40.5089706,16.3194565 39.7279221,17.1005051 L29.8284271,27 L39.7279221,36.8994949 C40.5089706,37.6805435 40.5089706,38.9468735 39.7279221,39.7279221 C38.9468735,40.5089706 37.6805435,40.5089706 36.8994949,39.7279221 L27,29.8284271 L17.1005051,39.7279221 C16.3194565,40.5089706 15.0531265,40.5089706 14.2720779,39.7279221 C13.4910294,38.9468735 13.4910294,37.6805435 14.2720779,36.8994949 L24.1715729,27 L14.2720779,17.1005051 C13.4910294,16.3194565 13.4910294,15.0531265 14.2720779,14.2720779 C15.0531265,13.4910294 16.3194565,13.4910294 17.1005051,14.2720779 L27,24.1715729 Z"/>
  </g>
</svg>
